<svg xmlns="http://www.w3.org/2000/svg" width="720" height="1280" viewBox="0 0 720 1280">
<defs>
  <linearGradient id="bgcandycanecarnivalpoparch" x1="0" y1="0" x2="1" y2="1">
    <stop offset="0" stop-color="#FFFDF2"/><stop offset="1" stop-color="#FFE9F0"/>
  </linearGradient>
  
</defs>
<rect width="720" height="1280" fill="url(#bgcandycanecarnivalpoparch)"/>
    <g opacity="0.9"><g transform="translate(180 1050) rotate(-15)">
        <path d="M0 0 L0 -160 Q0 -200 40 -200" fill="none" stroke="#E8447A" stroke-width="16" stroke-linecap="round" opacity="0.85"/>
        <path d="M0 0 L0 -160 Q0 -200 40 -200" fill="none" stroke="#FFFFFF" stroke-width="16" stroke-dasharray="12 12" stroke-linecap="round" opacity="0.7"/>
      </g><g transform="translate(310 1050) rotate(-5)">
        <path d="M0 0 L0 -160 Q0 -200 40 -200" fill="none" stroke="#E8447A" stroke-width="16" stroke-linecap="round" opacity="0.85"/>
        <path d="M0 0 L0 -160 Q0 -200 40 -200" fill="none" stroke="#FFFFFF" stroke-width="16" stroke-dasharray="12 12" stroke-linecap="round" opacity="0.7"/>
      </g><g transform="translate(440 1050) rotate(5)">
        <path d="M0 0 L0 -160 Q0 -200 40 -200" fill="none" stroke="#E8447A" stroke-width="16" stroke-linecap="round" opacity="0.85"/>
        <path d="M0 0 L0 -160 Q0 -200 40 -200" fill="none" stroke="#FFFFFF" stroke-width="16" stroke-dasharray="12 12" stroke-linecap="round" opacity="0.7"/>
      </g><g transform="translate(570 1050) rotate(15)">
        <path d="M0 0 L0 -160 Q0 -200 40 -200" fill="none" stroke="#E8447A" stroke-width="16" stroke-linecap="round" opacity="0.85"/>
        <path d="M0 0 L0 -160 Q0 -200 40 -200" fill="none" stroke="#FFFFFF" stroke-width="16" stroke-dasharray="12 12" stroke-linecap="round" opacity="0.7"/>
      </g></g>
    <rect x="20" y="20" width="680" height="1240" fill="none" stroke="#F2B705" stroke-width="2.5"/><rect x="28" y="28" width="664" height="1224" fill="none" stroke="#F2B705" stroke-width="1" opacity="0.6"/>
    <g opacity="0.5"><circle cx="100" cy="140" r="8" fill="#F2B705" opacity="0.7"/><circle cx="210" cy="140" r="8" fill="#E8447A" opacity="0.7"/><circle cx="320" cy="140" r="8" fill="#F2B705" opacity="0.7"/><circle cx="430" cy="140" r="8" fill="#E8447A" opacity="0.7"/><circle cx="540" cy="140" r="8" fill="#F2B705" opacity="0.7"/><circle cx="650" cy="140" r="8" fill="#E8447A" opacity="0.7"/></g>
    <circle cx="80" cy="1240" r="4" fill="#F2B705"/><circle cx="116" cy="1240" r="4" fill="#F2B705"/><circle cx="152" cy="1240" r="4" fill="#F2B705"/><circle cx="188" cy="1240" r="4" fill="#F2B705"/><circle cx="224" cy="1240" r="4" fill="#F2B705"/><circle cx="260" cy="1240" r="4" fill="#F2B705"/><circle cx="296" cy="1240" r="4" fill="#F2B705"/><circle cx="332" cy="1240" r="4" fill="#F2B705"/><circle cx="368" cy="1240" r="4" fill="#F2B705"/><circle cx="404" cy="1240" r="4" fill="#F2B705"/><circle cx="440" cy="1240" r="4" fill="#F2B705"/><circle cx="476" cy="1240" r="4" fill="#F2B705"/><circle cx="512" cy="1240" r="4" fill="#F2B705"/><circle cx="548" cy="1240" r="4" fill="#F2B705"/><circle cx="584" cy="1240" r="4" fill="#F2B705"/><circle cx="620" cy="1240" r="4" fill="#F2B705"/>

      <path d="M140 0 Q140 196 360 196 Q580 196 580 0" fill="none" stroke="#F2B705" stroke-width="6" opacity="0.85"/>
      <path d="M96 0 Q96 252 360 252 Q624 252 624 0" fill="none" stroke="#E8447A" stroke-width="2.5" opacity="0.5"/>
      <circle cx="180" cy="149.6" r="7" fill="#E8447A"/><circle cx="260" cy="172" r="7" fill="#E8447A"/><circle cx="360" cy="200" r="7" fill="#E8447A"/><circle cx="460" cy="172" r="7" fill="#E8447A"/><circle cx="540" cy="149.6" r="7" fill="#E8447A"/>
      <rect x="0" y="1196" width="720" height="9" fill="#F2B705" opacity="0.6"/>
      <rect x="0" y="1218" width="720" height="62" fill="#3B1733" opacity="0.18"/>
      <circle cx="90" cy="1249" r="5" fill="#F2B705"/><circle cx="136" cy="1249" r="5" fill="#F2B705"/><circle cx="182" cy="1249" r="5" fill="#F2B705"/><circle cx="228" cy="1249" r="5" fill="#F2B705"/><circle cx="274" cy="1249" r="5" fill="#F2B705"/><circle cx="320" cy="1249" r="5" fill="#F2B705"/><circle cx="366" cy="1249" r="5" fill="#F2B705"/><circle cx="412" cy="1249" r="5" fill="#F2B705"/><circle cx="458" cy="1249" r="5" fill="#F2B705"/><circle cx="504" cy="1249" r="5" fill="#F2B705"/><circle cx="550" cy="1249" r="5" fill="#F2B705"/><circle cx="596" cy="1249" r="5" fill="#F2B705"/>
</svg>