<svg xmlns="http://www.w3.org/2000/svg" width="720" height="1280" viewBox="0 0 720 1280">
<defs>
  <linearGradient id="bgcorporategridindigodreamglow" x1="0" y1="1" x2="1" y2="0">
    <stop offset="0" stop-color="#EEF0FF"/><stop offset="1" stop-color="#B8C4E8"/>
  </linearGradient>
  <radialGradient id="glowcorporategridindigodreamglow" cx="0.5" cy="0.5" r="0.5">
    <stop offset="0" stop-color="#F5F7FF" stop-opacity="0.92"/><stop offset="0.62" stop-color="#F5F7FF" stop-opacity="0.5"/><stop offset="1" stop-color="#F5F7FF" stop-opacity="0"/>
  </radialGradient>
</defs>
<rect width="720" height="1280" fill="url(#bgcorporategridindigodreamglow)"/>

    <path d="M0 0 L720 0 L720 150 Q360 230 0 150 Z" fill="#3B5998" opacity="0.9"/>
    <path d="M0 1280 L0 1120 Q360 1030 720 1120 L720 1280 Z" fill="#5B7EC2" opacity="0.85"/>
    <g opacity="0.22" stroke="#C9A84C" stroke-width="1.2" fill="none">
      <circle cx="640" cy="240" r="40"/><circle cx="640" cy="240" r="74"/><circle cx="640" cy="240" r="108"/><circle cx="640" cy="240" r="142"/><circle cx="640" cy="240" r="176"/><circle cx="640" cy="240" r="210"/><circle cx="640" cy="240" r="244"/><circle cx="640" cy="240" r="278"/><circle cx="640" cy="240" r="312"/><circle cx="640" cy="240" r="346"/>
      <circle cx="80" cy="1040" r="40"/><circle cx="80" cy="1040" r="74"/><circle cx="80" cy="1040" r="108"/><circle cx="80" cy="1040" r="142"/><circle cx="80" cy="1040" r="176"/><circle cx="80" cy="1040" r="210"/><circle cx="80" cy="1040" r="244"/><circle cx="80" cy="1040" r="278"/><circle cx="80" cy="1040" r="312"/><circle cx="80" cy="1040" r="346"/>
    </g>
    <rect x="60" y="300" width="6" height="640" fill="#C9A84C" opacity="0.6"/>
    <rect x="654" y="300" width="6" height="640" fill="#C9A84C" opacity="0.6"/>

      <ellipse cx="360" cy="450" rx="356" ry="330" fill="url(#glowcorporategridindigodreamglow)"/>
      <ellipse cx="360" cy="450" rx="300" ry="272" fill="none" stroke="#C9A84C" stroke-width="1.2" opacity="0.35"/>
      <path d="M0 1130 L720 1058 L720 1280 L0 1280 Z" fill="#C9A84C" opacity="0.14"/>
      <circle cx="90" cy="1218" r="4" fill="#C9A84C"/><circle cx="132" cy="1218" r="4" fill="#C9A84C"/><circle cx="174" cy="1218" r="4" fill="#C9A84C"/><circle cx="216" cy="1218" r="4" fill="#C9A84C"/><circle cx="258" cy="1218" r="4" fill="#C9A84C"/><circle cx="300" cy="1218" r="4" fill="#C9A84C"/><circle cx="342" cy="1218" r="4" fill="#C9A84C"/><circle cx="384" cy="1218" r="4" fill="#C9A84C"/><circle cx="426" cy="1218" r="4" fill="#C9A84C"/><circle cx="468" cy="1218" r="4" fill="#C9A84C"/><circle cx="510" cy="1218" r="4" fill="#C9A84C"/><circle cx="552" cy="1218" r="4" fill="#C9A84C"/><circle cx="594" cy="1218" r="4" fill="#C9A84C"/>
</svg>