<svg xmlns="http://www.w3.org/2000/svg" width="720" height="1280" viewBox="0 0 720 1280">
<defs>
  <linearGradient id="bgmarblepillarmidnightgoldglow" x1="0" y1="1" x2="1" y2="0">
    <stop offset="0" stop-color="#171D33"/><stop offset="1" stop-color="#06080F"/>
  </linearGradient>
  <radialGradient id="glowmarblepillarmidnightgoldglow" cx="0.5" cy="0.5" r="0.5">
    <stop offset="0" stop-color="#FFF7E4" stop-opacity="0.92"/><stop offset="0.62" stop-color="#FFF7E4" stop-opacity="0.5"/><stop offset="1" stop-color="#FFF7E4" stop-opacity="0"/>
  </radialGradient>
</defs>
<rect width="720" height="1280" fill="url(#bgmarblepillarmidnightgoldglow)"/>

    <rect x="46" y="120" width="56" height="1160" fill="#03040A" opacity="0.18"/>
    <rect x="618" y="120" width="56" height="1160" fill="#03040A" opacity="0.18"/>
    <rect x="34" y="96" width="80" height="30" rx="6" fill="#D9B45B"/><rect x="606" y="96" width="80" height="30" rx="6" fill="#D9B45B"/>
    <path d="M102 160 Q360 330 618 160" fill="none" stroke="#D9B45B" stroke-width="3"/>
    <line x1="150" y1="207.5363513952642" x2="150" y2="251.5363513952642" stroke="#8A6C2A" stroke-width="2"/><circle cx="150" cy="263.5363513952642" r="11" fill="#F0D68A"/><circle cx="150" cy="263.5363513952642" r="6.82" fill="#8A6C2A" opacity="0.85"/><circle cx="150" cy="263.5363513952642" r="3.08" fill="#D9B45B"/><line x1="250" y1="289.3593244819482" x2="250" y2="333.3593244819482" stroke="#8A6C2A" stroke-width="2"/><circle cx="250" cy="345.3593244819482" r="11" fill="#F0D68A"/><circle cx="250" cy="345.3593244819482" r="6.82" fill="#8A6C2A" opacity="0.85"/><circle cx="250" cy="345.3593244819482" r="3.08" fill="#D9B45B"/><line x1="360" y1="325" x2="360" y2="369" stroke="#8A6C2A" stroke-width="2"/><circle cx="360" cy="381" r="11" fill="#F0D68A"/><circle cx="360" cy="381" r="6.82" fill="#8A6C2A" opacity="0.85"/><circle cx="360" cy="381" r="3.08" fill="#D9B45B"/><line x1="470" y1="289.3593244819482" x2="470" y2="333.3593244819482" stroke="#8A6C2A" stroke-width="2"/><circle cx="470" cy="345.3593244819482" r="11" fill="#F0D68A"/><circle cx="470" cy="345.3593244819482" r="6.82" fill="#8A6C2A" opacity="0.85"/><circle cx="470" cy="345.3593244819482" r="3.08" fill="#D9B45B"/><line x1="570" y1="207.53635139526423" x2="570" y2="251.53635139526423" stroke="#8A6C2A" stroke-width="2"/><circle cx="570" cy="263.5363513952642" r="11" fill="#F0D68A"/><circle cx="570" cy="263.5363513952642" r="6.82" fill="#8A6C2A" opacity="0.85"/><circle cx="570" cy="263.5363513952642" r="3.08" fill="#D9B45B"/>
    <g opacity="0.5"><rect x="0" y="1120" width="720" height="160" fill="#FFF7E4"/>
    <path d="M46 1280 L90 1178 L134 1280 Z" fill="#8A6C2A" opacity="0.5"/><path d="M186 1280 L230 1178 L274 1280 Z" fill="#8A6C2A" opacity="0.5"/><path d="M326 1280 L370 1178 L414 1280 Z" fill="#8A6C2A" opacity="0.5"/><path d="M466 1280 L510 1178 L554 1280 Z" fill="#8A6C2A" opacity="0.5"/><path d="M606 1280 L650 1178 L694 1280 Z" fill="#8A6C2A" opacity="0.5"/></g>

      <ellipse cx="360" cy="450" rx="356" ry="330" fill="url(#glowmarblepillarmidnightgoldglow)"/>
      <ellipse cx="360" cy="450" rx="300" ry="272" fill="none" stroke="#D9B45B" stroke-width="1.2" opacity="0.35"/>
      <path d="M0 1130 L720 1058 L720 1280 L0 1280 Z" fill="#D9B45B" opacity="0.14"/>
      <circle cx="90" cy="1218" r="4" fill="#D9B45B"/><circle cx="132" cy="1218" r="4" fill="#D9B45B"/><circle cx="174" cy="1218" r="4" fill="#D9B45B"/><circle cx="216" cy="1218" r="4" fill="#D9B45B"/><circle cx="258" cy="1218" r="4" fill="#D9B45B"/><circle cx="300" cy="1218" r="4" fill="#D9B45B"/><circle cx="342" cy="1218" r="4" fill="#D9B45B"/><circle cx="384" cy="1218" r="4" fill="#D9B45B"/><circle cx="426" cy="1218" r="4" fill="#D9B45B"/><circle cx="468" cy="1218" r="4" fill="#D9B45B"/><circle cx="510" cy="1218" r="4" fill="#D9B45B"/><circle cx="552" cy="1218" r="4" fill="#D9B45B"/><circle cx="594" cy="1218" r="4" fill="#D9B45B"/>
</svg>