<svg xmlns="http://www.w3.org/2000/svg" width="720" height="1280" viewBox="0 0 720 1280">
<defs>
  <linearGradient id="bgcorporategridnavysilverclassic" x1="0" y1="0" x2="0" y2="1">
    <stop offset="0" stop-color="#F0F4F8"/><stop offset="1" stop-color="#A8B8C8"/>
  </linearGradient>
  
</defs>
<rect width="720" height="1280" fill="url(#bgcorporategridnavysilverclassic)"/>

    <path d="M0 0 L720 0 L720 150 Q360 230 0 150 Z" fill="#2C4A6C" opacity="0.9"/>
    <path d="M0 1280 L0 1120 Q360 1030 720 1120 L720 1280 Z" fill="#4A6A8C" opacity="0.85"/>
    <g opacity="0.22" stroke="#C0C0C0" stroke-width="1.2" fill="none">
      <circle cx="640" cy="240" r="40"/><circle cx="640" cy="240" r="74"/><circle cx="640" cy="240" r="108"/><circle cx="640" cy="240" r="142"/><circle cx="640" cy="240" r="176"/><circle cx="640" cy="240" r="210"/><circle cx="640" cy="240" r="244"/><circle cx="640" cy="240" r="278"/><circle cx="640" cy="240" r="312"/><circle cx="640" cy="240" r="346"/>
      <circle cx="80" cy="1040" r="40"/><circle cx="80" cy="1040" r="74"/><circle cx="80" cy="1040" r="108"/><circle cx="80" cy="1040" r="142"/><circle cx="80" cy="1040" r="176"/><circle cx="80" cy="1040" r="210"/><circle cx="80" cy="1040" r="244"/><circle cx="80" cy="1040" r="278"/><circle cx="80" cy="1040" r="312"/><circle cx="80" cy="1040" r="346"/>
    </g>
    <rect x="60" y="300" width="6" height="640" fill="#C0C0C0" opacity="0.6"/>
    <rect x="654" y="300" width="6" height="640" fill="#C0C0C0" opacity="0.6"/>

</svg>