<svg xmlns="http://www.w3.org/2000/svg" width="720" height="1280" viewBox="0 0 720 1280">
<defs>
  <linearGradient id="bgsilkdraperoyalblueglow" x1="0" y1="1" x2="1" y2="0">
    <stop offset="0" stop-color="#EFF4FC"/><stop offset="1" stop-color="#C6D8F1"/>
  </linearGradient>
  <radialGradient id="glowsilkdraperoyalblueglow" cx="0.5" cy="0.5" r="0.5">
    <stop offset="0" stop-color="#F8FBFF" stop-opacity="0.92"/><stop offset="0.62" stop-color="#F8FBFF" stop-opacity="0.5"/><stop offset="1" stop-color="#F8FBFF" stop-opacity="0"/>
  </radialGradient>
</defs>
<rect width="720" height="1280" fill="url(#bgsilkdraperoyalblueglow)"/>

    <path d="M0 940 Q180 860 360 940 Q540 1020 720 940 L720 1280 L0 1280 Z" fill="#2E5CA8" opacity="0.85"/>
    <path d="M0 1000 Q180 920 360 1000 Q540 1080 720 1000 L720 1280 L0 1280 Z" fill="#4C86C9" opacity="0.7"/>
    <path d="M0 940 Q180 860 360 940 Q540 1020 720 940" fill="none" stroke="#BE9B3F" stroke-width="7"/>
    <g opacity="0.5" stroke="#BE9B3F" stroke-width="1.4" fill="none">
      <path d="M0 1010 Q50 1080 0 1280"/><path d="M100 1010 Q150 1080 100 1280"/><path d="M200 1010 Q250 1080 200 1280"/><path d="M300 1010 Q350 1080 300 1280"/><path d="M400 1010 Q450 1080 400 1280"/><path d="M500 1010 Q550 1080 500 1280"/><path d="M600 1010 Q650 1080 600 1280"/><path d="M700 1010 Q750 1080 700 1280"/>
    </g>
    <rect x="0" y="0" width="720" height="34" fill="#BE9B3F" opacity="0.85"/>
    <circle cx="60" cy="62" r="6" fill="#BE9B3F"/><circle cx="88" cy="62" r="6" fill="#BE9B3F"/><circle cx="116" cy="62" r="6" fill="#BE9B3F"/><circle cx="144" cy="62" r="6" fill="#BE9B3F"/><circle cx="172" cy="62" r="6" fill="#BE9B3F"/><circle cx="200" cy="62" r="6" fill="#BE9B3F"/><circle cx="228" cy="62" r="6" fill="#BE9B3F"/><circle cx="256" cy="62" r="6" fill="#BE9B3F"/><circle cx="284" cy="62" r="6" fill="#BE9B3F"/><circle cx="312" cy="62" r="6" fill="#BE9B3F"/><circle cx="340" cy="62" r="6" fill="#BE9B3F"/><circle cx="368" cy="62" r="6" fill="#BE9B3F"/><circle cx="396" cy="62" r="6" fill="#BE9B3F"/><circle cx="424" cy="62" r="6" fill="#BE9B3F"/><circle cx="452" cy="62" r="6" fill="#BE9B3F"/><circle cx="480" cy="62" r="6" fill="#BE9B3F"/><circle cx="508" cy="62" r="6" fill="#BE9B3F"/><circle cx="536" cy="62" r="6" fill="#BE9B3F"/><circle cx="564" cy="62" r="6" fill="#BE9B3F"/><circle cx="592" cy="62" r="6" fill="#BE9B3F"/><circle cx="620" cy="62" r="6" fill="#BE9B3F"/><circle cx="648" cy="62" r="6" fill="#BE9B3F"/><rect x="100" y="100" width="520" height="1080" fill="none" stroke="#BE9B3F" stroke-width="1"/><rect x="108" y="108" width="504" height="1064" fill="none" stroke="#BE9B3F" stroke-width="1" opacity="0.6"/>

      <ellipse cx="360" cy="450" rx="356" ry="330" fill="url(#glowsilkdraperoyalblueglow)"/>
      <ellipse cx="360" cy="450" rx="300" ry="272" fill="none" stroke="#BE9B3F" stroke-width="1.2" opacity="0.35"/>
      <path d="M0 1130 L720 1058 L720 1280 L0 1280 Z" fill="#BE9B3F" opacity="0.14"/>
      <circle cx="90" cy="1218" r="4" fill="#BE9B3F"/><circle cx="132" cy="1218" r="4" fill="#BE9B3F"/><circle cx="174" cy="1218" r="4" fill="#BE9B3F"/><circle cx="216" cy="1218" r="4" fill="#BE9B3F"/><circle cx="258" cy="1218" r="4" fill="#BE9B3F"/><circle cx="300" cy="1218" r="4" fill="#BE9B3F"/><circle cx="342" cy="1218" r="4" fill="#BE9B3F"/><circle cx="384" cy="1218" r="4" fill="#BE9B3F"/><circle cx="426" cy="1218" r="4" fill="#BE9B3F"/><circle cx="468" cy="1218" r="4" fill="#BE9B3F"/><circle cx="510" cy="1218" r="4" fill="#BE9B3F"/><circle cx="552" cy="1218" r="4" fill="#BE9B3F"/><circle cx="594" cy="1218" r="4" fill="#BE9B3F"/>
</svg>