<svg xmlns="http://www.w3.org/2000/svg" width="720" height="1280" viewBox="0 0 720 1280">
<defs>
  <linearGradient id="bgdharmawheelsaffrontempleglow" x1="0" y1="1" x2="1" y2="0">
    <stop offset="0" stop-color="#FFF3D9"/><stop offset="1" stop-color="#F6CB76"/>
  </linearGradient>
  <radialGradient id="glowdharmawheelsaffrontempleglow" cx="0.5" cy="0.5" r="0.5">
    <stop offset="0" stop-color="#FFFBEE" stop-opacity="0.92"/><stop offset="0.62" stop-color="#FFFBEE" stop-opacity="0.5"/><stop offset="1" stop-color="#FFFBEE" stop-opacity="0"/>
  </radialGradient>
</defs>
<rect width="720" height="1280" fill="url(#bgdharmawheelsaffrontempleglow)"/>
<rect x="22" y="22" width="676" height="1236" fill="none" stroke="#A9760A" stroke-width="2.5"/><rect x="30" y="30" width="660" height="1220" fill="none" stroke="#A9760A" stroke-width="1" opacity="0.6"/><g opacity="0.9">
      <circle cx="360" cy="1100" r="100" fill="none" stroke="#A9760A" stroke-width="3"/>
      <circle cx="360" cy="1100" r="16" fill="#E8760B"/>
      <line x1="360" y1="1100" x2="460" y2="1100" stroke="#A9760A" stroke-width="2.5"/><line x1="360" y1="1100" x2="456.5925826289068" y2="1125.881904510252" stroke="#A9760A" stroke-width="2.5"/><line x1="360" y1="1100" x2="446.6025403784439" y2="1150" stroke="#A9760A" stroke-width="2.5"/><line x1="360" y1="1100" x2="430.71067811865476" y2="1170.7106781186546" stroke="#A9760A" stroke-width="2.5"/><line x1="360" y1="1100" x2="410" y2="1186.6025403784438" stroke="#A9760A" stroke-width="2.5"/><line x1="360" y1="1100" x2="385.88190451025207" y2="1196.5925826289067" stroke="#A9760A" stroke-width="2.5"/><line x1="360" y1="1100" x2="360" y2="1200" stroke="#A9760A" stroke-width="2.5"/><line x1="360" y1="1100" x2="334.11809548974793" y2="1196.5925826289067" stroke="#A9760A" stroke-width="2.5"/><line x1="360" y1="1100" x2="310" y2="1186.6025403784438" stroke="#A9760A" stroke-width="2.5"/><line x1="360" y1="1100" x2="289.28932188134524" y2="1170.7106781186549" stroke="#A9760A" stroke-width="2.5"/><line x1="360" y1="1100" x2="273.3974596215561" y2="1150" stroke="#A9760A" stroke-width="2.5"/><line x1="360" y1="1100" x2="263.4074173710932" y2="1125.881904510252" stroke="#A9760A" stroke-width="2.5"/><line x1="360" y1="1100" x2="260" y2="1100" stroke="#A9760A" stroke-width="2.5"/><line x1="360" y1="1100" x2="263.4074173710932" y2="1074.118095489748" stroke="#A9760A" stroke-width="2.5"/><line x1="360" y1="1100" x2="273.39745962155615" y2="1050" stroke="#A9760A" stroke-width="2.5"/><line x1="360" y1="1100" x2="289.28932188134524" y2="1029.2893218813454" stroke="#A9760A" stroke-width="2.5"/><line x1="360" y1="1100" x2="309.99999999999994" y2="1013.3974596215562" stroke="#A9760A" stroke-width="2.5"/><line x1="360" y1="1100" x2="334.11809548974793" y2="1003.4074173710932" stroke="#A9760A" stroke-width="2.5"/><line x1="360" y1="1100" x2="360" y2="1000" stroke="#A9760A" stroke-width="2.5"/><line x1="360" y1="1100" x2="385.881904510252" y2="1003.4074173710932" stroke="#A9760A" stroke-width="2.5"/><line x1="360" y1="1100" x2="410" y2="1013.3974596215561" stroke="#A9760A" stroke-width="2.5"/><line x1="360" y1="1100" x2="430.71067811865476" y2="1029.2893218813451" stroke="#A9760A" stroke-width="2.5"/><line x1="360" y1="1100" x2="446.60254037844385" y2="1050" stroke="#A9760A" stroke-width="2.5"/><line x1="360" y1="1100" x2="456.5925826289068" y2="1074.118095489748" stroke="#A9760A" stroke-width="2.5"/></g>
    <g opacity="0.5"><ellipse cx="0" cy="-60" rx="12" ry="60" fill="#C0392B" stroke="#A9760A" stroke-width="1.2" opacity="0.9" transform="translate(120 140) rotate(0)"/><ellipse cx="0" cy="-60" rx="12" ry="60" fill="#C0392B" stroke="#A9760A" stroke-width="1.2" opacity="0.9" transform="translate(120 140) rotate(36)"/><ellipse cx="0" cy="-60" rx="12" ry="60" fill="#C0392B" stroke="#A9760A" stroke-width="1.2" opacity="0.9" transform="translate(120 140) rotate(72)"/><ellipse cx="0" cy="-60" rx="12" ry="60" fill="#C0392B" stroke="#A9760A" stroke-width="1.2" opacity="0.9" transform="translate(120 140) rotate(108)"/><ellipse cx="0" cy="-60" rx="12" ry="60" fill="#C0392B" stroke="#A9760A" stroke-width="1.2" opacity="0.9" transform="translate(120 140) rotate(144)"/><ellipse cx="0" cy="-60" rx="12" ry="60" fill="#C0392B" stroke="#A9760A" stroke-width="1.2" opacity="0.9" transform="translate(120 140) rotate(180)"/><ellipse cx="0" cy="-60" rx="12" ry="60" fill="#C0392B" stroke="#A9760A" stroke-width="1.2" opacity="0.9" transform="translate(120 140) rotate(216)"/><ellipse cx="0" cy="-60" rx="12" ry="60" fill="#C0392B" stroke="#A9760A" stroke-width="1.2" opacity="0.9" transform="translate(120 140) rotate(251.99999999999997)"/><ellipse cx="0" cy="-60" rx="12" ry="60" fill="#C0392B" stroke="#A9760A" stroke-width="1.2" opacity="0.9" transform="translate(120 140) rotate(288)"/><ellipse cx="0" cy="-60" rx="12" ry="60" fill="#C0392B" stroke="#A9760A" stroke-width="1.2" opacity="0.9" transform="translate(120 140) rotate(324)"/><ellipse cx="0" cy="-60" rx="12" ry="60" fill="#C0392B" stroke="#A9760A" stroke-width="1.2" opacity="0.9" transform="translate(600 140) rotate(0)"/><ellipse cx="0" cy="-60" rx="12" ry="60" fill="#C0392B" stroke="#A9760A" stroke-width="1.2" opacity="0.9" transform="translate(600 140) rotate(36)"/><ellipse cx="0" cy="-60" rx="12" ry="60" fill="#C0392B" stroke="#A9760A" stroke-width="1.2" opacity="0.9" transform="translate(600 140) rotate(72)"/><ellipse cx="0" cy="-60" rx="12" ry="60" fill="#C0392B" stroke="#A9760A" stroke-width="1.2" opacity="0.9" transform="translate(600 140) rotate(108)"/><ellipse cx="0" cy="-60" rx="12" ry="60" fill="#C0392B" stroke="#A9760A" stroke-width="1.2" opacity="0.9" transform="translate(600 140) rotate(144)"/><ellipse cx="0" cy="-60" rx="12" ry="60" fill="#C0392B" stroke="#A9760A" stroke-width="1.2" opacity="0.9" transform="translate(600 140) rotate(180)"/><ellipse cx="0" cy="-60" rx="12" ry="60" fill="#C0392B" stroke="#A9760A" stroke-width="1.2" opacity="0.9" transform="translate(600 140) rotate(216)"/><ellipse cx="0" cy="-60" rx="12" ry="60" fill="#C0392B" stroke="#A9760A" stroke-width="1.2" opacity="0.9" transform="translate(600 140) rotate(251.99999999999997)"/><ellipse cx="0" cy="-60" rx="12" ry="60" fill="#C0392B" stroke="#A9760A" stroke-width="1.2" opacity="0.9" transform="translate(600 140) rotate(288)"/><ellipse cx="0" cy="-60" rx="12" ry="60" fill="#C0392B" stroke="#A9760A" stroke-width="1.2" opacity="0.9" transform="translate(600 140) rotate(324)"/></g>
    <circle cx="80" cy="60" r="5" fill="#E8760B"/><circle cx="110" cy="60" r="5" fill="#E8760B"/><circle cx="140" cy="60" r="5" fill="#E8760B"/><circle cx="170" cy="60" r="5" fill="#E8760B"/><circle cx="200" cy="60" r="5" fill="#E8760B"/><circle cx="230" cy="60" r="5" fill="#E8760B"/><circle cx="260" cy="60" r="5" fill="#E8760B"/><circle cx="290" cy="60" r="5" fill="#E8760B"/><circle cx="320" cy="60" r="5" fill="#E8760B"/><circle cx="350" cy="60" r="5" fill="#E8760B"/><circle cx="380" cy="60" r="5" fill="#E8760B"/><circle cx="410" cy="60" r="5" fill="#E8760B"/><circle cx="440" cy="60" r="5" fill="#E8760B"/><circle cx="470" cy="60" r="5" fill="#E8760B"/><circle cx="500" cy="60" r="5" fill="#E8760B"/><circle cx="530" cy="60" r="5" fill="#E8760B"/><circle cx="560" cy="60" r="5" fill="#E8760B"/><circle cx="590" cy="60" r="5" fill="#E8760B"/><circle cx="620" cy="60" r="5" fill="#E8760B"/><circle cx="80" cy="1240" r="5" fill="#E8760B"/><circle cx="110" cy="1240" r="5" fill="#E8760B"/><circle cx="140" cy="1240" r="5" fill="#E8760B"/><circle cx="170" cy="1240" r="5" fill="#E8760B"/><circle cx="200" cy="1240" r="5" fill="#E8760B"/><circle cx="230" cy="1240" r="5" fill="#E8760B"/><circle cx="260" cy="1240" r="5" fill="#E8760B"/><circle cx="290" cy="1240" r="5" fill="#E8760B"/><circle cx="320" cy="1240" r="5" fill="#E8760B"/><circle cx="350" cy="1240" r="5" fill="#E8760B"/><circle cx="380" cy="1240" r="5" fill="#E8760B"/><circle cx="410" cy="1240" r="5" fill="#E8760B"/><circle cx="440" cy="1240" r="5" fill="#E8760B"/><circle cx="470" cy="1240" r="5" fill="#E8760B"/><circle cx="500" cy="1240" r="5" fill="#E8760B"/><circle cx="530" cy="1240" r="5" fill="#E8760B"/><circle cx="560" cy="1240" r="5" fill="#E8760B"/><circle cx="590" cy="1240" r="5" fill="#E8760B"/><circle cx="620" cy="1240" r="5" fill="#E8760B"/>

      <ellipse cx="360" cy="450" rx="356" ry="330" fill="url(#glowdharmawheelsaffrontempleglow)"/>
      <ellipse cx="360" cy="450" rx="300" ry="272" fill="none" stroke="#A9760A" stroke-width="1.2" opacity="0.35"/>
      <path d="M0 1130 L720 1058 L720 1280 L0 1280 Z" fill="#A9760A" opacity="0.14"/>
      <circle cx="90" cy="1218" r="4" fill="#A9760A"/><circle cx="132" cy="1218" r="4" fill="#A9760A"/><circle cx="174" cy="1218" r="4" fill="#A9760A"/><circle cx="216" cy="1218" r="4" fill="#A9760A"/><circle cx="258" cy="1218" r="4" fill="#A9760A"/><circle cx="300" cy="1218" r="4" fill="#A9760A"/><circle cx="342" cy="1218" r="4" fill="#A9760A"/><circle cx="384" cy="1218" r="4" fill="#A9760A"/><circle cx="426" cy="1218" r="4" fill="#A9760A"/><circle cx="468" cy="1218" r="4" fill="#A9760A"/><circle cx="510" cy="1218" r="4" fill="#A9760A"/><circle cx="552" cy="1218" r="4" fill="#A9760A"/><circle cx="594" cy="1218" r="4" fill="#A9760A"/>
</svg>